<svg xmlns="http://www.w3.org/2000/svg" version="1.0" width="507.000000pt" height="538.000000pt" viewBox="0 0 507.000000 538.000000" preserveAspectRatio="xMidYMid meet">

<g transform="translate(0.000000,538.000000) scale(0.100000,-0.100000)" fill="#fb5484" stroke="none">
<path d="M2325 4954 c-192 -34 -307 -75 -567 -203 -201 -99 -233 -118 -326 -197 -140 -118 -238 -257 -338 -479 -39 -88 -74 -171 -76 -185 -3 -14 -19 -77 -37 -142 -43 -160 -54 -265 -57 -538 -1 -180 -8 -289 -29 -465 -57 -489 -65 -580 -65 -755 0 -240 41 -405 151 -604 82 -148 320 -509 329 -499 4 4 42 73 83 153 42 79 79 146 84 147 4 2 78 -73 163 -166 85 -93 157 -170 160 -170 5 -1 26 37 127 232 l56 108 -179 177 c-154 152 -192 196 -270 312 -99 149 -190 332 -228 461 -13 46 -27 91 -30 99 -4 9 9 41 30 75 73 122 193 333 249 443 l59 114 11 -56 c14 -67 18 -72 49 -58 22 10 24 14 19 74 -6 71 8 110 55 161 38 40 55 36 36 -8 -61 -146 63 -304 207 -265 109 30 170 172 117 273 -17 33 1 31 37 -3 57 -55 78 -139 51 -200 -4 -11 3 -21 25 -34 37 -22 45 -15 55 52 13 84 -16 170 -77 231 l-31 31 59 -5 c32 -3 77 -8 101 -11 l42 -5 0 -252 0 -252 -41 -60 c-62 -92 -100 -172 -106 -224 -5 -45 -3 -51 32 -89 47 -53 116 -92 232 -132 l92 -32 68 23 c146 48 244 105 277 159 34 59 7 145 -91 292 -37 56 -48 66 -62 58 -44 -23 -44 -36 -5 -102 50 -85 86 -189 72 -206 -22 -26 -144 -91 -201 -107 -56 -16 -61 -16 -125 4 -37 11 -95 39 -129 61 -50 31 -63 45 -63 65 0 30 42 127 95 216 l36 62 6 248 c6 249 -4 380 -31 412 -6 8 -65 29 -131 47 -66 18 -138 38 -160 45 -22 7 -96 27 -165 45 -69 18 -129 36 -133 40 -4 4 15 75 42 157 104 313 231 756 231 805 0 10 6 21 14 24 14 6 218 -69 320 -117 50 -24 74 -29 134 -29 65 0 85 5 175 44 116 51 263 106 280 106 7 0 21 -44 35 -105 32 -149 143 -522 229 -773 19 -57 31 -107 27 -111 -5 -4 -38 -15 -74 -25 -249 -65 -507 -141 -516 -152 -10 -12 -38 -144 -32 -149 2 -1 44 2 93 6 50 5 114 10 143 13 l52 5 -30 -31 c-60 -60 -89 -146 -76 -230 10 -67 18 -74 55 -52 22 13 29 23 25 34 -27 61 -6 145 51 200 19 18 37 32 39 29 3 -3 -1 -23 -9 -44 -17 -49 -18 -78 -4 -130 23 -81 124 -146 202 -130 114 24 179 158 133 270 -17 40 -10 44 28 14 48 -37 69 -94 63 -167 -5 -60 -3 -64 19 -74 31 -14 35 -9 49 59 l11 57 59 -115 c61 -119 194 -356 252 -447 l34 -52 -30 -101 c-43 -142 -139 -339 -239 -487 -71 -106 -116 -157 -264 -304 l-179 -177 88 -171 c48 -93 90 -170 93 -169 3 0 77 79 165 174 87 96 160 173 161 172 1 -1 37 -69 79 -152 43 -82 81 -154 85 -158 8 -10 225 316 319 481 80 140 133 289 152 427 23 174 4 477 -67 1050 -10 78 -17 224 -18 365 -3 283 -13 370 -61 560 -53 205 -143 408 -254 569 -72 104 -103 139 -191 213 -95 81 -125 99 -325 198 -252 124 -380 171 -550 201 -186 33 -359 34 -530 3z m-581 -1873 c-21 -15 -40 -27 -42 -26 -1 1 3 14 9 29 9 20 20 26 42 26 l30 0 -39 -29z m1705 3 c6 -15 10 -28 9 -29 -2 -1 -21 11 -42 26 l-39 29 30 0 c22 0 33 -6 42 -26z" fill="#fb5484"/>
<path d="M3061 1919 c-126 -118 -276 -149 -716 -149 l-193 0 -5 -32 c-3 -18 -1 -37 3 -42 5 -5 147 -6 322 -3 277 4 322 7 393 26 109 29 175 64 251 134 l65 60 -27 28 c-15 16 -30 29 -33 29 -3 -1 -30 -23 -60 -51z" fill="#fb5484"/>
<path d="M2275 889 c-44 -44 -117 -109 -161 -144 -86 -68 -172 -163 -204 -225 -21 -40 -137 -352 -164 -440 -10 -30 -19 -61 -21 -68 -4 -9 172 -12 855 -12 l859 0 -44 130 c-140 409 -187 492 -340 608 -33 25 -103 88 -157 140 l-96 94 -111 -17 c-104 -16 -119 -16 -216 -1 -57 9 -107 16 -112 16 -5 0 -44 -36 -88 -81z" fill="#fb5484"/>
</g>
</svg>