<svg version="1.1" id="Layer_1" xmlns="http://www.w3.org/2000/svg" xmlns:xlink="http://www.w3.org/1999/xlink" x="0px" y="0px"
	 width="100%" viewBox="0 0 496 528" enable-background="new 0 0 496 528" xml:space="preserve">
<path fill="#000000" opacity="1.000000" stroke="none" 
	d="
M175.468658,529.000000 
	C179.408798,517.157288 184.075317,505.402405 188.149033,493.445557 
	C191.736801,482.915039 198.684464,474.919983 206.862473,468.076019 
	C215.937546,460.481293 224.693085,452.594849 232.964905,444.160614 
	C235.123962,441.959167 237.284546,440.769806 240.466965,441.598877 
	C252.571686,444.752441 264.725372,444.865387 276.848480,441.702515 
	C280.327667,440.794800 282.804565,441.881897 285.268860,444.406586 
	C293.287476,452.621490 301.768433,460.308685 310.700165,467.577209 
	C319.138580,474.444275 325.782104,482.957214 329.460663,493.541656 
	C333.497131,505.155823 338.516846,516.418396 342.011505,528.614380 
	C286.645782,529.000000 231.291550,529.000000 175.468658,529.000000 
z"/>
<path fill="#000000" opacity="1.000000" stroke="none" 
	d="
M153.673386,425.347382 
	C152.130539,423.852814 150.826675,422.611115 148.684174,420.570709 
	C143.069244,431.318695 137.761169,441.479340 132.511353,451.528442 
	C129.288498,450.629608 128.831253,448.206787 127.697021,446.514648 
	C116.846420,430.327454 105.819511,414.254059 96.442467,397.124878 
	C88.880493,383.311310 84.953606,368.558685 83.534386,352.920013 
	C81.499786,330.500214 85.284767,308.472076 87.192680,286.299683 
	C89.044487,264.779449 94.272011,243.479492 92.545303,221.742661 
	C91.372223,206.975250 92.615730,192.352142 95.114227,178.028244 
	C97.729858,163.032883 101.895554,148.275345 108.032829,134.083282 
	C114.175659,119.878403 121.961014,106.785355 131.326218,94.634056 
	C138.303375,85.581238 147.474350,78.343712 157.177795,72.861176 
	C175.831360,62.321758 194.953262,52.376907 215.850281,46.650337 
	C239.099213,40.279259 262.527374,38.523708 286.393250,43.008766 
	C302.228760,45.984703 317.388214,50.620438 331.621887,58.242355 
	C335.427612,60.280266 339.409637,62.031742 343.424438,63.628788 
	C358.231384,69.518761 370.326660,79.444725 382.327728,89.523499 
	C385.961823,92.575508 388.098541,96.811630 390.903717,100.523544 
	C406.460876,121.109383 415.597137,144.530502 421.147003,169.459717 
	C424.916290,186.390823 426.925415,203.519821 425.392365,220.939499 
	C424.036743,236.342850 427.232269,251.446671 428.707275,266.666016 
	C430.568756,285.872498 433.270752,304.981232 434.524261,324.267883 
	C435.393127,337.636688 435.530426,350.849548 433.243103,364.042999 
	C431.356140,374.927307 428.010284,385.352112 422.834930,395.136627 
	C412.841858,414.029449 400.314880,431.337921 388.851685,449.311432 
	C388.323120,450.140198 387.865265,451.087830 385.606079,451.451813 
	C380.474945,441.670197 375.156799,431.532013 369.303772,420.374176 
	C358.272888,432.174866 347.904358,443.266937 337.645050,454.242188 
	C334.784698,453.029358 334.273804,450.767303 333.289825,448.929596 
	C329.043671,440.999573 324.924835,433.001190 320.654816,425.084290 
	C318.786469,421.620361 318.779327,419.106049 322.005402,415.981567 
	C332.648529,405.673615 343.863892,395.853546 353.177856,384.290436 
	C369.535309,363.982941 381.964050,341.539764 388.401886,316.055328 
	C388.828491,314.366547 388.846191,312.819244 387.926514,311.251617 
	C377.474182,293.435455 366.950806,275.658295 357.730164,257.153625 
	C357.536896,256.765747 357.024628,256.536835 356.682465,256.251526 
	C355.180817,257.017120 355.261017,258.528229 354.734283,259.691742 
	C353.819489,261.712341 354.527740,265.474060 350.474670,264.203430 
	C347.312286,263.212036 345.725311,261.428650 347.015137,257.419067 
	C349.160492,250.749741 346.665222,245.028870 341.637909,240.369247 
	C341.315430,240.070343 340.762543,240.020081 339.601776,239.587921 
	C341.505646,248.521942 341.620941,256.838379 334.552216,263.357422 
	C330.985718,266.646545 326.600922,268.568878 321.867493,268.475525 
	C309.174774,268.225220 303.297272,258.603271 304.517670,239.679504 
	C300.145660,242.567795 297.808380,246.078720 297.281219,250.604767 
	C296.958191,253.378113 296.942657,256.347321 297.590454,259.035461 
	C298.518188,262.885223 295.917267,263.848969 293.501892,264.681580 
	C290.443390,265.735931 289.745270,262.886810 289.356293,260.968903 
	C287.861328,253.597595 288.143005,246.371658 292.379761,239.771866 
	C293.539185,237.965790 294.734924,236.182999 296.264374,233.856491 
	C287.556946,232.814789 279.477722,235.900864 270.755768,235.047165 
	C270.665802,229.659805 271.724457,224.693741 273.249237,219.847839 
	C273.918243,217.721634 276.183685,217.352097 278.126251,216.811417 
	C294.162720,212.347992 310.193481,207.864227 326.229553,203.399582 
	C333.649048,201.333939 333.525085,201.365189 331.023560,193.863525 
	C322.704468,168.916351 314.489227,143.934418 308.191681,118.374245 
	C307.395935,115.144493 306.338684,111.960388 305.804871,108.689491 
	C305.085876,104.283707 302.799561,103.756859 299.088165,105.180901 
	C289.606018,108.819160 280.292572,112.864517 270.889343,116.681679 
	C263.185120,119.809128 254.780258,119.867462 247.140579,116.675468 
	C238.080505,112.890015 229.055801,109.009483 219.909058,105.430603 
	C214.733170,103.405426 213.447205,104.076164 212.167999,109.430267 
	C205.314072,138.117493 196.376938,166.183762 187.003799,194.120941 
	C184.521774,201.518784 184.517715,201.451889 191.999207,203.509872 
	C208.205856,207.967957 224.383377,212.532242 240.599091,216.956833 
	C243.559753,217.764679 244.750824,219.495422 245.552872,222.418152 
	C249.195099,235.690781 247.246902,249.221283 248.060730,262.608887 
	C249.108704,279.848236 242.554840,294.300140 234.905273,308.693359 
	C232.464874,313.285156 233.855408,316.198914 237.997971,318.526001 
	C240.465225,319.911987 242.788010,321.571747 245.311249,322.838562 
	C257.744385,329.080750 272.420197,326.631653 282.697205,316.788757 
	C284.514648,315.048065 284.710876,313.320129 284.019073,310.954681 
	C282.028381,304.147705 278.749420,297.989868 274.830780,292.176208 
	C272.679779,288.985016 273.746368,287.203918 276.510986,285.237640 
	C279.551514,283.075134 280.916504,284.847290 282.511658,287.031891 
	C287.339691,293.643951 291.784851,300.425842 294.574463,308.231873 
	C296.887146,314.703278 295.624359,320.040833 290.410400,324.388153 
	C281.612885,331.723389 270.997101,335.174622 260.220734,338.215576 
	C259.303772,338.474365 258.172791,338.431152 257.253418,338.154877 
	C247.665970,335.273956 238.111984,332.231720 229.901443,326.249756 
	C222.337860,320.739166 220.850281,315.417969 224.166824,306.627594 
	C226.295486,300.985657 229.091400,295.636230 232.820297,290.918549 
	C236.008423,286.884979 237.150955,282.595093 237.039978,277.500000 
	C236.786011,265.839447 236.933716,254.169174 236.989944,242.503189 
	C237.029343,234.327469 231.189011,231.029968 222.735733,235.032547 
	C227.391724,241.570175 230.391327,248.661972 229.304062,256.876068 
	C229.107941,258.357727 229.050827,259.895721 228.588058,261.294769 
	C227.981552,263.128357 227.367889,265.668762 224.701385,264.777771 
	C222.322769,263.983002 219.487701,263.065857 220.363266,259.260162 
	C221.680649,253.533936 221.447205,247.973724 217.535187,243.134995 
	C216.730408,242.139542 215.987717,240.909653 213.722916,241.126099 
	C214.927872,250.015732 214.727249,258.740845 206.579788,264.752991 
	C203.006134,267.390015 198.878601,268.895691 194.410294,268.339508 
	C182.027710,266.798157 177.278244,258.647461 177.852890,240.332077 
	C172.086502,242.385834 169.001221,250.075577 170.947128,257.689606 
	C171.439621,259.616638 172.321808,261.326965 170.010483,262.944183 
	C166.502548,265.398682 164.947128,265.018402 163.581985,260.870148 
	C163.129929,259.496429 163.159210,257.859741 161.667435,257.007874 
	C159.991867,257.189117 159.590530,258.561584 159.019562,259.722290 
	C150.628189,276.781036 140.880936,293.082336 131.169968,309.399139 
	C129.495819,312.212128 129.313339,314.726990 130.194138,317.883698 
	C139.481750,351.169952 157.324188,379.137665 182.376419,402.714172 
	C187.471481,407.509064 192.309586,412.576355 197.379181,417.399261 
	C199.095276,419.031860 199.589157,420.712158 198.521210,422.735413 
	C193.158798,432.894653 187.754501,443.031860 182.331161,453.158722 
	C182.129318,453.535614 181.578079,453.725433 180.503906,454.491455 
	C171.646622,444.868164 162.779495,435.234192 153.673386,425.347382 
z"/>
<path fill="#000000" opacity="1.000000" stroke="none" 
	d="
M276.511566,359.372925 
	C289.770477,358.422455 300.890930,353.811188 309.489685,344.031067 
	C312.214691,340.931671 314.251495,341.508942 316.902863,344.067841 
	C319.707123,346.774323 318.953186,348.701843 316.551910,351.135345 
	C305.555634,362.278961 292.340546,367.962341 276.714050,369.521057 
	C258.422699,371.345612 240.148773,371.102448 221.848862,371.003723 
	C218.647263,370.986450 214.879272,371.366730 214.829361,366.184692 
	C214.791794,362.285645 216.440018,360.945770 220.244659,360.953979 
	C234.395233,360.984497 248.546204,360.739258 262.697144,360.729828 
	C267.216644,360.726807 271.666290,360.381226 276.511566,359.372925 
z"/>
</svg>